<svg width="250" height="17" viewBox="0 0 250 17" fill="none" xmlns="http://www.w3.org/2000/svg">
<path d="M236.652 2.40008C248.269 3.90008 246.372 2.80009 246.135 3.50009C246.965 3.80009 247.794 4.00008 249.098 4.40008C248.15 5.00008 247.557 5.30009 246.846 5.70009C246.965 5.80009 247.202 6.00009 247.32 6.20009C247.202 6.30009 246.965 6.50009 246.846 6.50009C243.29 6.30009 239.734 7.3001 236.178 7.1001C232.503 6.90009 228.829 6.8001 225.154 7.1001C222.19 7.40009 219.346 7.50009 216.382 7.60009C215.434 7.60009 214.723 7.00009 213.656 7.50009C212.826 7.90009 211.522 7.60009 210.455 7.60009C209.27 7.60009 208.085 7.60009 206.899 7.60009C205.832 7.60009 204.765 7.60009 203.699 7.60009C202.632 7.60009 201.565 7.60009 200.498 7.60009C200.38 7.60009 200.38 7.70009 200.024 8.00009C201.091 8.10009 201.921 8.20009 202.75 8.30009C202.75 8.40009 202.75 8.50009 202.75 8.60009C201.684 8.60009 200.498 8.70009 199.431 8.70009C198.246 8.70009 197.061 8.70009 195.875 8.70009C195.638 8.70009 195.401 8.70009 195.282 8.60009C194.097 7.2001 192.793 7.40009 191.134 8.10009C190.541 8.40009 189.593 8.10009 188.881 8.10009C178.806 8.10009 168.612 8.10009 158.536 8.10009C157.469 8.10009 156.165 7.60009 155.217 8.60009C155.217 8.60009 154.98 8.60009 154.861 8.60009C153.913 7.7001 152.965 9.00009 152.135 8.60009C151.187 8.00009 150.594 8.10009 149.646 8.60009C149.409 8.80009 148.697 8.50009 148.223 8.30009C147.631 8.00009 147.631 7.70008 148.223 7.40008C148.105 7.30008 147.986 7.1001 147.868 7.1001C147.631 7.1001 147.393 7.1001 147.275 7.1001C147.038 7.40009 147.038 7.80009 146.801 8.00009C146.445 8.30009 145.971 8.60009 145.497 8.60009C144.786 8.60009 143.837 8.10009 143.245 8.30009C142.415 8.70009 141.822 8.60009 140.992 8.30009C140.4 8.10009 139.57 8.60009 138.74 8.60009C135.777 8.60009 132.695 8.60009 129.731 8.60009C129.376 8.2001 129.139 7.90009 128.902 7.50009C128.546 7.80009 128.072 8.10009 127.361 8.60009C126.057 8.90009 123.923 7.90009 122.619 9.70008C122.264 9.30009 121.908 9.00008 121.552 8.70009C118.945 9.30009 116.574 9.40009 114.085 8.70009C111.477 9.70008 108.869 8.80009 106.261 9.20009C106.261 8.70009 106.498 8.10009 106.38 8.10009C105.431 7.8001 105.55 8.60009 105.313 9.10009C104.246 9.10009 103.061 9.10009 101.875 9.10009C101.757 9.50009 101.52 9.80009 101.401 10.1001C101.282 10.0001 101.045 10.0001 100.927 9.90008C100.334 9.10008 99.2674 8.80009 98.4376 9.10009C96.541 9.90009 94.5259 9.50009 92.5107 9.60009C90.8512 9.70009 89.0732 9.60009 87.4136 10.0001C88.4805 10.1001 89.4288 10.2001 90.4956 10.3001C88.1249 10.5001 85.6356 11.6001 83.8575 9.80009C82.6721 10.0001 81.6053 10.2001 80.657 10.2001C77.575 10.2001 74.4931 10.2001 71.4111 10.2001C71.174 10.7001 71.0555 11.0001 70.937 11.5001C70.4628 10.8001 69.9887 10.3001 69.5145 9.80009C69.2775 10.5001 68.8033 11.3001 67.855 10.8001C66.9067 10.2001 66.314 10.6001 65.3657 10.8001C63.7062 11.1001 61.9281 10.9001 60.2686 11.2001C61.0984 11.3001 61.9281 11.4001 62.7579 11.5001C62.6394 11.7001 62.5208 11.9001 62.4023 11.9001C60.0315 11.9001 57.6608 12.0001 55.2901 11.9001C53.512 11.8001 51.8525 11.2001 50.0744 11.4001C49.8373 11.4001 49.4817 11.5001 49.2447 11.8001C50.0744 11.9001 51.0227 12.0001 51.8525 12.0001C49.1261 12.2001 46.5183 12.9001 43.7919 12.0001C42.6066 11.6001 41.0656 11.9001 39.6431 12.2001C40.2358 12.3001 40.8285 12.4001 41.4212 12.6001C41.3027 12.7001 41.1841 13.0001 41.1841 13.0001C40.1173 13.0001 39.0505 13.0001 37.9836 13.0001C37.3909 11.8001 36.5612 13.6001 35.6129 12.8001C35.0202 12.3001 33.8348 13.5001 32.6495 12.6001C32.0568 12.1001 30.3972 12.5001 29.2119 12.9001C30.0416 13.0001 30.8714 13.1001 31.7012 13.2001C31.4641 13.4001 31.3455 13.6001 31.227 13.6001C29.5675 13.6001 28.0265 13.6001 26.367 13.6001C23.1665 13.7001 20.0845 13.7001 17.0025 14.2001C15.343 14.5001 13.6835 14.5001 12.1425 14.7001C10.7201 14.8001 9.41616 15.3001 8.82347 16.8001C8.23078 16.8001 7.04541 17.0001 6.92687 16.8001C6.45273 15.8001 5.03028 15.7001 4.67467 14.9001C4.31906 14.1001 3.84491 13.9001 3.13368 13.5001C1.5927 12.8001 1.23709 11.4001 2.06685 10.0001C1.5927 9.60009 1.23709 9.20008 0.762939 8.90008C0.762939 8.70008 0.762939 8.50008 0.881477 8.40008C2.06685 7.20008 3.4893 6.70009 5.38589 6.50009C8.5864 6.20009 11.6684 5.40009 14.8689 5.50009C16.7655 4.50009 18.7806 5.10008 20.7957 4.90008C22.3367 4.80008 23.8777 4.50008 25.4187 4.40008C26.9597 4.30008 28.6192 4.70009 29.9231 4.30009C31.8197 3.70009 33.7163 3.80008 35.4943 3.90008C37.8651 4.10008 39.9988 3.20009 42.3695 3.30009C44.7402 3.30009 47.2295 3.70009 49.4817 3.20009C53.8676 2.40009 58.2535 3.20009 62.5208 2.70009C67.855 2.10009 73.1892 2.7001 78.4048 2.1001C85.3985 1.3001 92.5107 1.90009 99.5044 1.70009C100.334 1.70009 101.282 1.70009 102.112 1.70009C102.823 1.70009 103.653 1.90009 104.127 1.20009C104.483 2.10009 105.313 1.10009 106.024 1.50009C106.38 1.80009 107.446 1.20009 108.276 1.20009C109.106 1.10009 110.054 1.20009 110.884 1.20009C111.595 1.20009 112.425 1.20009 113.136 1.20009C113.966 1.20009 114.914 1.20009 115.744 1.20009C116.574 1.20009 117.522 1.20009 118.352 1.20009C119.063 1.20009 119.893 1.20009 120.604 1.20009C121.434 1.20009 122.382 1.10009 123.212 1.20009C124.279 1.30009 125.227 1.0001 126.294 1.6001C126.768 1.9001 127.953 1.20009 128.902 1.20009C131.628 1.10009 134.236 1.20009 136.962 1.20009C137.91 1.20009 139.096 1.60009 139.926 0.700088C140.518 0.100088 140.874 1.70009 141.704 0.800094C141.941 0.500094 143.363 0.500088 143.482 0.700088C144.311 1.80009 145.26 0.100095 145.852 0.800094C146.682 1.80009 147.275 0.600088 147.986 0.700088C148.342 0.700088 148.816 0.800085 149.172 0.900085C149.883 1.00009 150.95 1.40009 151.187 1.20009C152.016 0.300088 153.083 1.20009 154.032 0.800094C154.98 0.400094 156.402 0.700088 157.469 0.700088C178.569 0.700088 199.668 0.700088 220.768 0.700088C223.613 0.700088 226.458 1.30009 229.184 0.200088C230.607 1.20009 232.029 0.100098 233.451 0.100098C237.956 0.300098 242.46 0.200088 247.32 0.200088C247.202 0.600088 247.083 1.20009 246.846 1.20009C244.594 1.40009 242.342 1.90009 239.971 1.80009C235.23 1.70009 230.488 1.80009 225.747 1.80009C225.628 1.80009 225.391 2.0001 225.272 2.1001C225.509 2.2001 225.747 2.30008 225.865 2.40008C226.458 2.50008 226.932 3.10008 227.643 2.40008C227.762 2.20008 228.473 2.40008 228.947 2.40008C235.23 2.20008 241.512 2.20008 236.652 2.40008C225.391 2.50008 225.391 2.40009 225.391 2.30009C224.443 2.10009 223.376 1.8001 222.428 1.6001C221.835 1.5001 218.516 1.6001 217.923 1.6001C217.449 1.6001 216.856 1.4001 216.738 1.6001C215.908 2.5001 214.723 2.1001 213.774 2.1001C198.483 2.1001 183.192 2.1001 167.9 2.1001C166.952 2.1001 166.004 2.50009 165.174 1.70009C165.056 1.60009 164.463 1.5001 164.344 1.6001C163.396 2.5001 162.092 2.0001 161.025 2.1001C158.773 2.3001 156.402 1.8001 154.15 2.6001C153.557 2.8001 152.491 2.50009 151.779 2.30009C150.238 2.00009 148.697 1.80008 147.156 2.40008C146.682 2.60008 145.971 1.8001 145.497 2.6001C144.667 1.7001 143.245 1.90009 142.533 2.20009C141.348 2.70009 140.518 1.7001 139.451 2.1001C139.214 2.2001 138.977 2.10009 138.859 2.30009C138.385 2.80009 137.91 2.70008 137.199 2.40008C136.488 2.10008 135.421 2.00009 134.71 2.20009C133.762 2.50009 132.695 2.7001 131.984 2.6001C130.917 2.4001 129.968 2.70009 128.902 2.70009C120.96 2.90009 113.136 2.40009 105.194 3.20009C99.2674 3.80009 93.3405 3.00009 87.2951 3.70009C81.8424 4.40009 76.2711 3.50009 70.6999 4.30009C66.314 4.90009 61.8096 4.10008 57.4237 4.90008C55.4086 5.30008 53.1564 4.80009 51.0227 5.00009C49.0076 5.10009 47.111 4.80008 45.0959 5.40008C43.1993 6.00008 40.8285 5.5001 38.6948 5.6001C38.3392 5.6001 37.9836 5.70009 37.7466 5.80009C38.2207 6.20009 38.5763 6.20009 38.9319 6.20009C42.7251 6.10009 46.5183 6.20009 50.3115 5.70009C54.9344 5.10009 59.5574 5.90009 64.2989 5.20009C68.6848 4.50009 73.1892 5.7001 77.5751 4.6001C78.1677 4.4001 78.7604 5.6001 79.3531 4.6001C80.0643 5.5001 80.657 4.50009 81.3682 4.50009C86.7024 4.40009 92.0366 4.90009 97.2522 4.00009C97.9634 3.90009 99.0303 3.8001 99.3859 4.1001C100.334 4.8001 100.808 3.70008 101.52 3.90008C102.231 4.10008 103.061 3.90008 103.772 3.90008C108.039 3.90008 112.425 3.90008 116.692 3.90008C117.759 3.90008 119.063 4.30008 120.011 3.40008C120.13 3.30008 120.723 3.60009 121.078 3.70009C121.552 3.80009 122.382 4.00008 122.501 3.90008C123.093 3.20008 123.449 3.80008 123.923 3.90008C124.397 4.00008 124.99 3.40008 125.583 3.40008C126.531 3.40008 127.479 3.00008 128.309 3.90008C128.902 3.30008 129.85 3.40008 130.561 3.40008C131.391 3.40008 132.339 3.20008 132.932 3.90008C133.525 3.10008 134.473 3.40008 135.303 3.40008C140.637 3.40008 146.09 3.50008 151.424 3.40008C156.758 3.30008 162.092 4.00008 167.308 2.90008C167.9 3.40008 168.849 3.10009 169.56 3.20009C170.508 3.30009 171.457 2.90008 172.405 2.90008C173.472 2.90008 174.776 2.60008 175.724 3.40008C176.791 2.40008 178.213 2.90008 179.399 2.90008C193.623 2.90008 207.847 2.90008 222.072 2.90008C223.257 2.70008 224.324 2.70008 236.652 2.40008Z" fill="black"/>
</svg>
